<svg width="290" height="140" viewBox="0 0 290 140" fill="none" xmlns="http://www.w3.org/2000/svg">
<g clip-path="url(#clip0_802_742)">
<path fill-rule="evenodd" clip-rule="evenodd" d="M69.9995 128H138L169 12H69.9995C37.9995 12 11.9995 38 11.9995 70C11.9995 102 37.9995 128 69.9995 128Z" fill="white"/>
<path fill-rule="evenodd" clip-rule="evenodd" d="M220.479 0H69.5205C30.7877 0 0 31 0 70C0 109 30.7877 140 69.5205 140H220.479C259.212 140 290 109 290 70C290 31 258.219 0 220.479 0ZM11.9178 70C11.9178 38 37.7397 12 69.5205 12H167.842L137.055 128H69.5205C37.7397 128 11.9178 102 11.9178 70Z" fill="#0066FF"/>
<path d="M242 40C244 42 244 46 242 48L221 70L243 92C245 94 245 98 243 100C241 102 237 102 235 100L213 78L191 100C189 102 185 102 183 100C181 98 181 94 183 92L204 70L182 48C180 46 180 42 182 40C184 38 188 38 190 40L212 62L234 40C236 38 240 38 242 40Z" fill="white"/>
<path d="M123 41C125 43 126 47 124 49L82 98C81 99 80 100 79 100C77 101 74 101 72 99L50 77C48 75 48 71 50 69C52 67 56 67 58 69L76 86L114 41C116 39 120 39 123 41Z" fill="#0066FF"/>
</g>
<defs>
<clipPath id="clip0_802_742">
<rect width="290" height="140" fill="white"/>
</clipPath>
</defs>
</svg>
